<?xml version="1.0" encoding="UTF-8" standalone="no"?>
<!DOCTYPE svg PUBLIC "-//W3C//DTD SVG 1.1//EN"
 "http://www.w3.org/Graphics/SVG/1.1/DTD/svg11.dtd">
<!-- Generated by graphviz version 7.0.0 (20221023.0053)
 -->
<!-- Title: G Pages: 1 -->
<svg width="855pt" height="394pt"
 viewBox="0.00 0.00 855.20 394.20" xmlns="http://www.w3.org/2000/svg" xmlns:xlink="http://www.w3.org/1999/xlink">
<g id="graph0" class="graph" transform="scale(1 1) rotate(0) translate(21.6 372.6)">
<title>G</title>
<polygon fill="#111111" stroke="none" points="-21.6,21.6 -21.6,-372.6 833.6,-372.6 833.6,21.6 -21.6,21.6"/>
<!-- server/src/app.js -->
<g id="node1" class="node">
<title>server/src/app.js</title>
<path fill="none" stroke="#c6c5fe" d="M278.83,-64C278.83,-64 178.17,-64 178.17,-64 174.33,-64 170.5,-60.17 170.5,-56.33 170.5,-56.33 170.5,-48.67 170.5,-48.67 170.5,-44.83 174.33,-41 178.17,-41 178.17,-41 278.83,-41 278.83,-41 282.67,-41 286.5,-44.83 286.5,-48.67 286.5,-48.67 286.5,-56.33 286.5,-56.33 286.5,-60.17 282.67,-64 278.83,-64"/>
<text text-anchor="middle" x="228.5" y="-48.8" font-family="Arial" font-size="14.00" fill="#c6c5fe">server/src/app.js</text>
</g>
<!-- server/src/routes/router.js -->
<g id="node2" class="node">
<title>server/src/routes/router.js</title>
<path fill="none" stroke="#c6c5fe" d="M501.83,-64C501.83,-64 348.17,-64 348.17,-64 344.33,-64 340.5,-60.17 340.5,-56.33 340.5,-56.33 340.5,-48.67 340.5,-48.67 340.5,-44.83 344.33,-41 348.17,-41 348.17,-41 501.83,-41 501.83,-41 505.67,-41 509.5,-44.83 509.5,-48.67 509.5,-48.67 509.5,-56.33 509.5,-56.33 509.5,-60.17 505.67,-64 501.83,-64"/>
<text text-anchor="middle" x="425" y="-48.8" font-family="Arial" font-size="14.00" fill="#c6c5fe">server/src/routes/router.js</text>
</g>
<!-- server/src/app.js&#45;&gt;server/src/routes/router.js -->
<g id="edge1" class="edge">
<title>server/src/app.js&#45;&gt;server/src/routes/router.js</title>
<path fill="none" stroke="#757575" d="M286.8,-52.5C299.98,-52.5 314.34,-52.5 328.64,-52.5"/>
<polygon fill="#757575" stroke="#757575" points="328.56,-56 338.56,-52.5 328.56,-49 328.56,-56"/>
</g>
<!-- server/src/utils/createMockQuestions.js -->
<g id="node3" class="node">
<title>server/src/utils/createMockQuestions.js</title>
<path fill="none" stroke="#cfffac" d="M804.33,-105C804.33,-105 566.67,-105 566.67,-105 562.83,-105 559,-101.17 559,-97.33 559,-97.33 559,-89.67 559,-89.67 559,-85.83 562.83,-82 566.67,-82 566.67,-82 804.33,-82 804.33,-82 808.17,-82 812,-85.83 812,-89.67 812,-89.67 812,-97.33 812,-97.33 812,-101.17 808.17,-105 804.33,-105"/>
<text text-anchor="middle" x="685.5" y="-89.8" font-family="Arial" font-size="14.00" fill="#cfffac">server/src/utils/createMockQuestions.js</text>
</g>
<!-- server/src/routes/router.js&#45;&gt;server/src/utils/createMockQuestions.js -->
<g id="edge2" class="edge">
<title>server/src/routes/router.js&#45;&gt;server/src/utils/createMockQuestions.js</title>
<path fill="none" stroke="#757575" d="M501.46,-64.47C531.59,-69.25 566.47,-74.78 597.64,-79.72"/>
<polygon fill="#757575" stroke="#757575" points="597.02,-83.17 607.45,-81.28 598.12,-76.26 597.02,-83.17"/>
</g>
<!-- server/src/utils/getData.js -->
<g id="node4" class="node">
<title>server/src/utils/getData.js</title>
<path fill="none" stroke="#cfffac" d="M761.83,-64C761.83,-64 609.17,-64 609.17,-64 605.33,-64 601.5,-60.17 601.5,-56.33 601.5,-56.33 601.5,-48.67 601.5,-48.67 601.5,-44.83 605.33,-41 609.17,-41 609.17,-41 761.83,-41 761.83,-41 765.67,-41 769.5,-44.83 769.5,-48.67 769.5,-48.67 769.5,-56.33 769.5,-56.33 769.5,-60.17 765.67,-64 761.83,-64"/>
<text text-anchor="middle" x="685.5" y="-48.8" font-family="Arial" font-size="14.00" fill="#cfffac">server/src/utils/getData.js</text>
</g>
<!-- server/src/routes/router.js&#45;&gt;server/src/utils/getData.js -->
<g id="edge3" class="edge">
<title>server/src/routes/router.js&#45;&gt;server/src/utils/getData.js</title>
<path fill="none" stroke="#757575" d="M509.93,-52.5C535.48,-52.5 563.74,-52.5 589.95,-52.5"/>
<polygon fill="#757575" stroke="#757575" points="589.92,-56 599.92,-52.5 589.92,-49 589.92,-56"/>
</g>
<!-- server/src/utils/validateData.js -->
<g id="node5" class="node">
<title>server/src/utils/validateData.js</title>
<path fill="none" stroke="#cfffac" d="M775.83,-23C775.83,-23 595.17,-23 595.17,-23 591.33,-23 587.5,-19.17 587.5,-15.33 587.5,-15.33 587.5,-7.67 587.5,-7.67 587.5,-3.83 591.33,0 595.17,0 595.17,0 775.83,0 775.83,0 779.67,0 783.5,-3.83 783.5,-7.67 783.5,-7.67 783.5,-15.33 783.5,-15.33 783.5,-19.17 779.67,-23 775.83,-23"/>
<text text-anchor="middle" x="685.5" y="-7.8" font-family="Arial" font-size="14.00" fill="#cfffac">server/src/utils/validateData.js</text>
</g>
<!-- server/src/routes/router.js&#45;&gt;server/src/utils/validateData.js -->
<g id="edge4" class="edge">
<title>server/src/routes/router.js&#45;&gt;server/src/utils/validateData.js</title>
<path fill="none" stroke="#757575" d="M501.46,-40.53C531.59,-35.75 566.47,-30.22 597.64,-25.28"/>
<polygon fill="#757575" stroke="#757575" points="598.12,-28.74 607.45,-23.72 597.02,-21.83 598.12,-28.74"/>
</g>
<!-- server/src/server.js -->
<g id="node6" class="node">
<title>server/src/server.js</title>
<path fill="none" stroke="#c6c5fe" d="M122.33,-64C122.33,-64 7.67,-64 7.67,-64 3.83,-64 0,-60.17 0,-56.33 0,-56.33 0,-48.67 0,-48.67 0,-44.83 3.83,-41 7.67,-41 7.67,-41 122.33,-41 122.33,-41 126.17,-41 130,-44.83 130,-48.67 130,-48.67 130,-56.33 130,-56.33 130,-60.17 126.17,-64 122.33,-64"/>
<text text-anchor="middle" x="65" y="-48.8" font-family="Arial" font-size="14.00" fill="#c6c5fe">server/src/server.js</text>
</g>
<!-- server/src/server.js&#45;&gt;server/src/app.js -->
<g id="edge5" class="edge">
<title>server/src/server.js&#45;&gt;server/src/app.js</title>
<path fill="none" stroke="#757575" d="M130.29,-52.5C139.67,-52.5 149.36,-52.5 158.83,-52.5"/>
<polygon fill="#757575" stroke="#757575" points="158.71,-56 168.71,-52.5 158.71,-49 158.71,-56"/>
</g>
<!-- src/App.js -->
<g id="node7" class="node">
<title>src/App.js</title>
<path fill="none" stroke="#c6c5fe" d="M95.33,-227C95.33,-227 34.67,-227 34.67,-227 30.83,-227 27,-223.17 27,-219.33 27,-219.33 27,-211.67 27,-211.67 27,-207.83 30.83,-204 34.67,-204 34.67,-204 95.33,-204 95.33,-204 99.17,-204 103,-207.83 103,-211.67 103,-211.67 103,-219.33 103,-219.33 103,-223.17 99.17,-227 95.33,-227"/>
<text text-anchor="middle" x="65" y="-211.8" font-family="Arial" font-size="14.00" fill="#c6c5fe">src/App.js</text>
</g>
<!-- src/Routes.jsx -->
<g id="node8" class="node">
<title>src/Routes.jsx</title>
<path fill="none" stroke="#c6c5fe" d="M271.33,-248C271.33,-248 185.67,-248 185.67,-248 181.83,-248 178,-244.17 178,-240.33 178,-240.33 178,-232.67 178,-232.67 178,-228.83 181.83,-225 185.67,-225 185.67,-225 271.33,-225 271.33,-225 275.17,-225 279,-228.83 279,-232.67 279,-232.67 279,-240.33 279,-240.33 279,-244.17 275.17,-248 271.33,-248"/>
<text text-anchor="middle" x="228.5" y="-232.8" font-family="Arial" font-size="14.00" fill="#c6c5fe">src/Routes.jsx</text>
</g>
<!-- src/App.js&#45;&gt;src/Routes.jsx -->
<g id="edge6" class="edge">
<title>src/App.js&#45;&gt;src/Routes.jsx</title>
<path fill="none" stroke="#757575" d="M103.46,-220.37C122.18,-222.8 145.3,-225.81 166.5,-228.57"/>
<polygon fill="#757575" stroke="#757575" points="165.83,-232.01 176.2,-229.83 166.73,-225.07 165.83,-232.01"/>
</g>
<!-- src/styles/App.css -->
<g id="node9" class="node">
<title>src/styles/App.css</title>
<path fill="none" stroke="#cfffac" d="M283.33,-207C283.33,-207 173.67,-207 173.67,-207 169.83,-207 166,-203.17 166,-199.33 166,-199.33 166,-191.67 166,-191.67 166,-187.83 169.83,-184 173.67,-184 173.67,-184 283.33,-184 283.33,-184 287.17,-184 291,-187.83 291,-191.67 291,-191.67 291,-199.33 291,-199.33 291,-203.17 287.17,-207 283.33,-207"/>
<text text-anchor="middle" x="228.5" y="-191.8" font-family="Arial" font-size="14.00" fill="#cfffac">src/styles/App.css</text>
</g>
<!-- src/App.js&#45;&gt;src/styles/App.css -->
<g id="edge7" class="edge">
<title>src/App.js&#45;&gt;src/styles/App.css</title>
<path fill="none" stroke="#757575" d="M103.46,-210.86C118.66,-208.98 136.78,-206.73 154.4,-204.55"/>
<polygon fill="#757575" stroke="#757575" points="154.58,-208.06 164.08,-203.35 153.72,-201.11 154.58,-208.06"/>
</g>
<!-- src/components/Error.js -->
<g id="node10" class="node">
<title>src/components/Error.js</title>
<path fill="none" stroke="#cfffac" d="M496.83,-351C496.83,-351 353.17,-351 353.17,-351 349.33,-351 345.5,-347.17 345.5,-343.33 345.5,-343.33 345.5,-335.67 345.5,-335.67 345.5,-331.83 349.33,-328 353.17,-328 353.17,-328 496.83,-328 496.83,-328 500.67,-328 504.5,-331.83 504.5,-335.67 504.5,-335.67 504.5,-343.33 504.5,-343.33 504.5,-347.17 500.67,-351 496.83,-351"/>
<text text-anchor="middle" x="425" y="-335.8" font-family="Arial" font-size="14.00" fill="#cfffac">src/components/Error.js</text>
</g>
<!-- src/Routes.jsx&#45;&gt;src/components/Error.js -->
<g id="edge8" class="edge">
<title>src/Routes.jsx&#45;&gt;src/components/Error.js</title>
<path fill="none" stroke="#757575" d="M239.58,-248.24C255.96,-266.53 290.25,-301.55 327,-319.5 330.11,-321.02 333.32,-322.42 336.61,-323.71"/>
<polygon fill="#757575" stroke="#757575" points="335.3,-326.96 345.9,-327 337.64,-320.36 335.3,-326.96"/>
</g>
<!-- src/components/Loading.jsx -->
<g id="node11" class="node">
<title>src/components/Loading.jsx</title>
<path fill="none" stroke="#cfffac" d="M509.83,-310C509.83,-310 340.17,-310 340.17,-310 336.33,-310 332.5,-306.17 332.5,-302.33 332.5,-302.33 332.5,-294.67 332.5,-294.67 332.5,-290.83 336.33,-287 340.17,-287 340.17,-287 509.83,-287 509.83,-287 513.67,-287 517.5,-290.83 517.5,-294.67 517.5,-294.67 517.5,-302.33 517.5,-302.33 517.5,-306.17 513.67,-310 509.83,-310"/>
<text text-anchor="middle" x="425" y="-294.8" font-family="Arial" font-size="14.00" fill="#cfffac">src/components/Loading.jsx</text>
</g>
<!-- src/Routes.jsx&#45;&gt;src/components/Loading.jsx -->
<g id="edge9" class="edge">
<title>src/Routes.jsx&#45;&gt;src/components/Loading.jsx</title>
<path fill="none" stroke="#757575" d="M253.42,-248.43C272.85,-257.72 301.16,-270.36 327,-278.5 333.15,-280.44 339.57,-282.23 346.06,-283.89"/>
<polygon fill="#757575" stroke="#757575" points="345,-287.23 355.54,-286.19 346.65,-280.43 345,-287.23"/>
</g>
<!-- src/components/NotFound.jsx -->
<g id="node12" class="node">
<title>src/components/NotFound.jsx</title>
<path fill="none" stroke="#cfffac" d="M515.33,-269C515.33,-269 334.67,-269 334.67,-269 330.83,-269 327,-265.17 327,-261.33 327,-261.33 327,-253.67 327,-253.67 327,-249.83 330.83,-246 334.67,-246 334.67,-246 515.33,-246 515.33,-246 519.17,-246 523,-249.83 523,-253.67 523,-253.67 523,-261.33 523,-261.33 523,-265.17 519.17,-269 515.33,-269"/>
<text text-anchor="middle" x="425" y="-253.8" font-family="Arial" font-size="14.00" fill="#cfffac">src/components/NotFound.jsx</text>
</g>
<!-- src/Routes.jsx&#45;&gt;src/components/NotFound.jsx -->
<g id="edge10" class="edge">
<title>src/Routes.jsx&#45;&gt;src/components/NotFound.jsx</title>
<path fill="none" stroke="#757575" d="M279.34,-241.88C290.57,-243.09 302.91,-244.43 315.51,-245.79"/>
<polygon fill="#757575" stroke="#757575" points="314.81,-249.23 325.13,-246.82 315.56,-242.27 314.81,-249.23"/>
</g>
<!-- src/components/Question.jsx -->
<g id="node13" class="node">
<title>src/components/Question.jsx</title>
<path fill="none" stroke="#c6c5fe" d="M512.83,-187C512.83,-187 337.17,-187 337.17,-187 333.33,-187 329.5,-183.17 329.5,-179.33 329.5,-179.33 329.5,-171.67 329.5,-171.67 329.5,-167.83 333.33,-164 337.17,-164 337.17,-164 512.83,-164 512.83,-164 516.67,-164 520.5,-167.83 520.5,-171.67 520.5,-171.67 520.5,-179.33 520.5,-179.33 520.5,-183.17 516.67,-187 512.83,-187"/>
<text text-anchor="middle" x="425" y="-171.8" font-family="Arial" font-size="14.00" fill="#c6c5fe">src/components/Question.jsx</text>
</g>
<!-- src/Routes.jsx&#45;&gt;src/components/Question.jsx -->
<g id="edge11" class="edge">
<title>src/Routes.jsx&#45;&gt;src/components/Question.jsx</title>
<path fill="none" stroke="#757575" d="M269.95,-224.58C277.05,-222.14 284.31,-219.41 291,-216.5 307.78,-209.19 309.87,-202.95 327,-196.5 332.94,-194.26 339.18,-192.24 345.51,-190.4"/>
<polygon fill="#757575" stroke="#757575" points="346.01,-193.89 354.75,-187.9 344.18,-187.14 346.01,-193.89"/>
</g>
<!-- src/components/Results.jsx -->
<g id="node14" class="node">
<title>src/components/Results.jsx</title>
<path fill="none" stroke="#c6c5fe" d="M508.33,-228C508.33,-228 341.67,-228 341.67,-228 337.83,-228 334,-224.17 334,-220.33 334,-220.33 334,-212.67 334,-212.67 334,-208.83 337.83,-205 341.67,-205 341.67,-205 508.33,-205 508.33,-205 512.17,-205 516,-208.83 516,-212.67 516,-212.67 516,-220.33 516,-220.33 516,-224.17 512.17,-228 508.33,-228"/>
<text text-anchor="middle" x="425" y="-212.8" font-family="Arial" font-size="14.00" fill="#c6c5fe">src/components/Results.jsx</text>
</g>
<!-- src/Routes.jsx&#45;&gt;src/components/Results.jsx -->
<g id="edge12" class="edge">
<title>src/Routes.jsx&#45;&gt;src/components/Results.jsx</title>
<path fill="none" stroke="#757575" d="M279.34,-231.38C292.61,-230.01 307.45,-228.49 322.42,-226.95"/>
<polygon fill="#757575" stroke="#757575" points="322.77,-230.43 332.36,-225.92 322.06,-223.46 322.77,-230.43"/>
</g>
<!-- src/hooks/useQuestion.js -->
<g id="node15" class="node">
<title>src/hooks/useQuestion.js</title>
<path fill="none" stroke="#cfffac" d="M501.33,-146C501.33,-146 348.67,-146 348.67,-146 344.83,-146 341,-142.17 341,-138.33 341,-138.33 341,-130.67 341,-130.67 341,-126.83 344.83,-123 348.67,-123 348.67,-123 501.33,-123 501.33,-123 505.17,-123 509,-126.83 509,-130.67 509,-130.67 509,-138.33 509,-138.33 509,-142.17 505.17,-146 501.33,-146"/>
<text text-anchor="middle" x="425" y="-130.8" font-family="Arial" font-size="14.00" fill="#cfffac">src/hooks/useQuestion.js</text>
</g>
<!-- src/Routes.jsx&#45;&gt;src/hooks/useQuestion.js -->
<g id="edge13" class="edge">
<title>src/Routes.jsx&#45;&gt;src/hooks/useQuestion.js</title>
<path fill="none" stroke="#757575" d="M277.94,-224.58C282.6,-222.33 287.06,-219.66 291,-216.5 315.56,-196.8 301.48,-173.93 327,-155.5 328.96,-154.08 331.01,-152.76 333.11,-151.52"/>
<polygon fill="#757575" stroke="#757575" points="334.67,-154.65 342.01,-147.01 331.5,-148.41 334.67,-154.65"/>
</g>
<!-- src/features/questionSlice.js -->
<g id="node16" class="node">
<title>src/features/questionSlice.js</title>
<path fill="none" stroke="#cfffac" d="M770.33,-166C770.33,-166 600.67,-166 600.67,-166 596.83,-166 593,-162.17 593,-158.33 593,-158.33 593,-150.67 593,-150.67 593,-146.83 596.83,-143 600.67,-143 600.67,-143 770.33,-143 770.33,-143 774.17,-143 778,-146.83 778,-150.67 778,-150.67 778,-158.33 778,-158.33 778,-162.17 774.17,-166 770.33,-166"/>
<text text-anchor="middle" x="685.5" y="-150.8" font-family="Arial" font-size="14.00" fill="#cfffac">src/features/questionSlice.js</text>
</g>
<!-- src/components/Question.jsx&#45;&gt;src/features/questionSlice.js -->
<g id="edge14" class="edge">
<title>src/components/Question.jsx&#45;&gt;src/features/questionSlice.js</title>
<path fill="none" stroke="#757575" d="M520.79,-167.8C540.51,-166.2 561.39,-164.5 581.4,-162.88"/>
<polygon fill="#757575" stroke="#757575" points="581.55,-166.38 591.23,-162.08 580.98,-159.4 581.55,-166.38"/>
</g>
<!-- src/styles/styles.module.css -->
<g id="node17" class="node">
<title>src/styles/styles.module.css</title>
<path fill="none" stroke="#cfffac" d="M769.83,-217C769.83,-217 601.17,-217 601.17,-217 597.33,-217 593.5,-213.17 593.5,-209.33 593.5,-209.33 593.5,-201.67 593.5,-201.67 593.5,-197.83 597.33,-194 601.17,-194 601.17,-194 769.83,-194 769.83,-194 773.67,-194 777.5,-197.83 777.5,-201.67 777.5,-201.67 777.5,-209.33 777.5,-209.33 777.5,-213.17 773.67,-217 769.83,-217"/>
<text text-anchor="middle" x="685.5" y="-201.8" font-family="Arial" font-size="14.00" fill="#cfffac">src/styles/styles.module.css</text>
</g>
<!-- src/components/Question.jsx&#45;&gt;src/styles/styles.module.css -->
<g id="edge15" class="edge">
<title>src/components/Question.jsx&#45;&gt;src/styles/styles.module.css</title>
<path fill="none" stroke="#757575" d="M520.79,-186.5C540.63,-188.8 561.65,-191.24 581.77,-193.58"/>
<polygon fill="#757575" stroke="#757575" points="581.33,-197.05 591.67,-194.73 582.14,-190.1 581.33,-197.05"/>
</g>
<!-- src/components/Results.jsx&#45;&gt;src/styles/styles.module.css -->
<g id="edge16" class="edge">
<title>src/components/Results.jsx&#45;&gt;src/styles/styles.module.css</title>
<path fill="none" stroke="#757575" d="M516.41,-212.65C537.61,-211.75 560.35,-210.78 582.04,-209.86"/>
<polygon fill="#757575" stroke="#757575" points="581.91,-213.37 591.75,-209.45 581.61,-206.38 581.91,-213.37"/>
</g>
<!-- src/store.js -->
<g id="node18" class="node">
<title>src/store.js</title>
<path fill="none" stroke="#c6c5fe" d="M458.33,-105C458.33,-105 391.67,-105 391.67,-105 387.83,-105 384,-101.17 384,-97.33 384,-97.33 384,-89.67 384,-89.67 384,-85.83 387.83,-82 391.67,-82 391.67,-82 458.33,-82 458.33,-82 462.17,-82 466,-85.83 466,-89.67 466,-89.67 466,-97.33 466,-97.33 466,-101.17 462.17,-105 458.33,-105"/>
<text text-anchor="middle" x="425" y="-89.8" font-family="Arial" font-size="14.00" fill="#c6c5fe">src/store.js</text>
</g>
<!-- src/store.js&#45;&gt;src/features/questionSlice.js -->
<g id="edge17" class="edge">
<title>src/store.js&#45;&gt;src/features/questionSlice.js</title>
<path fill="none" stroke="#757575" d="M466.17,-101.92C483.66,-105.65 504.37,-110.18 523,-114.5 557.58,-122.52 596.18,-132.06 626.98,-139.81"/>
<polygon fill="#757575" stroke="#757575" points="625.92,-143.16 636.48,-142.21 627.64,-136.37 625.92,-143.16"/>
</g>
</g>
</svg>
