<?xml version="1.0" encoding="UTF-8" standalone="no"?>
<!DOCTYPE svg PUBLIC "-//W3C//DTD SVG 1.1//EN"
 "http://www.w3.org/Graphics/SVG/1.1/DTD/svg11.dtd">
<!-- Generated by graphviz version 7.0.0 (20221023.0053)
 -->
<!-- Title: G Pages: 1 -->
<svg width="925pt" height="394pt"
 viewBox="0.00 0.00 925.20 394.20" xmlns="http://www.w3.org/2000/svg" xmlns:xlink="http://www.w3.org/1999/xlink">
<g id="graph0" class="graph" transform="scale(1 1) rotate(0) translate(21.6 372.6)">
<title>G</title>
<polygon fill="#111111" stroke="none" points="-21.6,21.6 -21.6,-372.6 903.6,-372.6 903.6,21.6 -21.6,21.6"/>
<!-- jest.config.js -->
<g id="node1" class="node">
<title>jest.config.js</title>
<path fill="none" stroke="#cfffac" d="M102.83,-23C102.83,-23 27.17,-23 27.17,-23 23.33,-23 19.5,-19.17 19.5,-15.33 19.5,-15.33 19.5,-7.67 19.5,-7.67 19.5,-3.83 23.33,0 27.17,0 27.17,0 102.83,0 102.83,0 106.67,0 110.5,-3.83 110.5,-7.67 110.5,-7.67 110.5,-15.33 110.5,-15.33 110.5,-19.17 106.67,-23 102.83,-23"/>
<text text-anchor="middle" x="65" y="-7.8" font-family="Arial" font-size="14.00" fill="#cfffac">jest.config.js</text>
</g>
<!-- server/src/app.js -->
<g id="node2" class="node">
<title>server/src/app.js</title>
<path fill="none" stroke="#c6c5fe" d="M316.33,-64C316.33,-64 215.67,-64 215.67,-64 211.83,-64 208,-60.17 208,-56.33 208,-56.33 208,-48.67 208,-48.67 208,-44.83 211.83,-41 215.67,-41 215.67,-41 316.33,-41 316.33,-41 320.17,-41 324,-44.83 324,-48.67 324,-48.67 324,-56.33 324,-56.33 324,-60.17 320.17,-64 316.33,-64"/>
<text text-anchor="middle" x="266" y="-48.8" font-family="Arial" font-size="14.00" fill="#c6c5fe">server/src/app.js</text>
</g>
<!-- server/src/routes/router.js -->
<g id="node3" class="node">
<title>server/src/routes/router.js</title>
<path fill="none" stroke="#c6c5fe" d="M574.33,-64C574.33,-64 420.67,-64 420.67,-64 416.83,-64 413,-60.17 413,-56.33 413,-56.33 413,-48.67 413,-48.67 413,-44.83 416.83,-41 420.67,-41 420.67,-41 574.33,-41 574.33,-41 578.17,-41 582,-44.83 582,-48.67 582,-48.67 582,-56.33 582,-56.33 582,-60.17 578.17,-64 574.33,-64"/>
<text text-anchor="middle" x="497.5" y="-48.8" font-family="Arial" font-size="14.00" fill="#c6c5fe">server/src/routes/router.js</text>
</g>
<!-- server/src/app.js&#45;&gt;server/src/routes/router.js -->
<g id="edge1" class="edge">
<title>server/src/app.js&#45;&gt;server/src/routes/router.js</title>
<path fill="none" stroke="#757575" d="M324.32,-52.5C347.57,-52.5 375.05,-52.5 401.15,-52.5"/>
<polygon fill="#757575" stroke="#757575" points="401.12,-56 411.12,-52.5 401.12,-49 401.12,-56"/>
</g>
<!-- server/src/utils/createMockQuestions.js -->
<g id="node4" class="node">
<title>server/src/utils/createMockQuestions.js</title>
<path fill="none" stroke="#cfffac" d="M874.33,-105C874.33,-105 636.67,-105 636.67,-105 632.83,-105 629,-101.17 629,-97.33 629,-97.33 629,-89.67 629,-89.67 629,-85.83 632.83,-82 636.67,-82 636.67,-82 874.33,-82 874.33,-82 878.17,-82 882,-85.83 882,-89.67 882,-89.67 882,-97.33 882,-97.33 882,-101.17 878.17,-105 874.33,-105"/>
<text text-anchor="middle" x="755.5" y="-89.8" font-family="Arial" font-size="14.00" fill="#cfffac">server/src/utils/createMockQuestions.js</text>
</g>
<!-- server/src/routes/router.js&#45;&gt;server/src/utils/createMockQuestions.js -->
<g id="edge2" class="edge">
<title>server/src/routes/router.js&#45;&gt;server/src/utils/createMockQuestions.js</title>
<path fill="none" stroke="#757575" d="M573.23,-64.47C603.07,-69.25 637.61,-74.78 668.48,-79.72"/>
<polygon fill="#757575" stroke="#757575" points="667.75,-83.15 678.18,-81.28 668.86,-76.24 667.75,-83.15"/>
</g>
<!-- server/src/utils/getData.js -->
<g id="node5" class="node">
<title>server/src/utils/getData.js</title>
<path fill="none" stroke="#cfffac" d="M831.83,-64C831.83,-64 679.17,-64 679.17,-64 675.33,-64 671.5,-60.17 671.5,-56.33 671.5,-56.33 671.5,-48.67 671.5,-48.67 671.5,-44.83 675.33,-41 679.17,-41 679.17,-41 831.83,-41 831.83,-41 835.67,-41 839.5,-44.83 839.5,-48.67 839.5,-48.67 839.5,-56.33 839.5,-56.33 839.5,-60.17 835.67,-64 831.83,-64"/>
<text text-anchor="middle" x="755.5" y="-48.8" font-family="Arial" font-size="14.00" fill="#cfffac">server/src/utils/getData.js</text>
</g>
<!-- server/src/routes/router.js&#45;&gt;server/src/utils/getData.js -->
<g id="edge3" class="edge">
<title>server/src/routes/router.js&#45;&gt;server/src/utils/getData.js</title>
<path fill="none" stroke="#757575" d="M582.32,-52.5C607.22,-52.5 634.66,-52.5 660.17,-52.5"/>
<polygon fill="#757575" stroke="#757575" points="659.85,-56 669.85,-52.5 659.85,-49 659.85,-56"/>
</g>
<!-- server/src/utils/validateData.js -->
<g id="node6" class="node">
<title>server/src/utils/validateData.js</title>
<path fill="none" stroke="#cfffac" d="M845.83,-23C845.83,-23 665.17,-23 665.17,-23 661.33,-23 657.5,-19.17 657.5,-15.33 657.5,-15.33 657.5,-7.67 657.5,-7.67 657.5,-3.83 661.33,0 665.17,0 665.17,0 845.83,0 845.83,0 849.67,0 853.5,-3.83 853.5,-7.67 853.5,-7.67 853.5,-15.33 853.5,-15.33 853.5,-19.17 849.67,-23 845.83,-23"/>
<text text-anchor="middle" x="755.5" y="-7.8" font-family="Arial" font-size="14.00" fill="#cfffac">server/src/utils/validateData.js</text>
</g>
<!-- server/src/routes/router.js&#45;&gt;server/src/utils/validateData.js -->
<g id="edge4" class="edge">
<title>server/src/routes/router.js&#45;&gt;server/src/utils/validateData.js</title>
<path fill="none" stroke="#757575" d="M572.69,-40.54C591.09,-37.58 610.76,-34.42 629,-31.5 641.55,-29.49 654.81,-27.37 667.83,-25.29"/>
<polygon fill="#757575" stroke="#757575" points="668.36,-28.75 677.68,-23.72 667.25,-21.84 668.36,-28.75"/>
</g>
<!-- server/src/server.js -->
<g id="node7" class="node">
<title>server/src/server.js</title>
<path fill="none" stroke="#c6c5fe" d="M122.33,-64C122.33,-64 7.67,-64 7.67,-64 3.83,-64 0,-60.17 0,-56.33 0,-56.33 0,-48.67 0,-48.67 0,-44.83 3.83,-41 7.67,-41 7.67,-41 122.33,-41 122.33,-41 126.17,-41 130,-44.83 130,-48.67 130,-48.67 130,-56.33 130,-56.33 130,-60.17 126.17,-64 122.33,-64"/>
<text text-anchor="middle" x="65" y="-48.8" font-family="Arial" font-size="14.00" fill="#c6c5fe">server/src/server.js</text>
</g>
<!-- server/src/server.js&#45;&gt;server/src/app.js -->
<g id="edge5" class="edge">
<title>server/src/server.js&#45;&gt;server/src/app.js</title>
<path fill="none" stroke="#757575" d="M130.33,-52.5C151.41,-52.5 174.91,-52.5 196.3,-52.5"/>
<polygon fill="#757575" stroke="#757575" points="196.09,-56 206.09,-52.5 196.09,-49 196.09,-56"/>
</g>
<!-- src/App.js -->
<g id="node8" class="node">
<title>src/App.js</title>
<path fill="none" stroke="#c6c5fe" d="M95.33,-228C95.33,-228 34.67,-228 34.67,-228 30.83,-228 27,-224.17 27,-220.33 27,-220.33 27,-212.67 27,-212.67 27,-208.83 30.83,-205 34.67,-205 34.67,-205 95.33,-205 95.33,-205 99.17,-205 103,-208.83 103,-212.67 103,-212.67 103,-220.33 103,-220.33 103,-224.17 99.17,-228 95.33,-228"/>
<text text-anchor="middle" x="65" y="-212.8" font-family="Arial" font-size="14.00" fill="#c6c5fe">src/App.js</text>
</g>
<!-- src/Routes.jsx -->
<g id="node9" class="node">
<title>src/Routes.jsx</title>
<path fill="none" stroke="#c6c5fe" d="M308.83,-269C308.83,-269 223.17,-269 223.17,-269 219.33,-269 215.5,-265.17 215.5,-261.33 215.5,-261.33 215.5,-253.67 215.5,-253.67 215.5,-249.83 219.33,-246 223.17,-246 223.17,-246 308.83,-246 308.83,-246 312.67,-246 316.5,-249.83 316.5,-253.67 316.5,-253.67 316.5,-261.33 316.5,-261.33 316.5,-265.17 312.67,-269 308.83,-269"/>
<text text-anchor="middle" x="266" y="-253.8" font-family="Arial" font-size="14.00" fill="#c6c5fe">src/Routes.jsx</text>
</g>
<!-- src/App.js&#45;&gt;src/Routes.jsx -->
<g id="edge6" class="edge">
<title>src/App.js&#45;&gt;src/Routes.jsx</title>
<path fill="none" stroke="#757575" d="M103.03,-224.35C121.87,-228.32 145.15,-233.2 166,-237.5 178.35,-240.04 191.58,-242.74 204.22,-245.3"/>
<polygon fill="#757575" stroke="#757575" points="203.15,-248.65 213.65,-247.2 204.54,-241.79 203.15,-248.65"/>
</g>
<!-- src/styles/App.css -->
<g id="node10" class="node">
<title>src/styles/App.css</title>
<path fill="none" stroke="#cfffac" d="M320.83,-187C320.83,-187 211.17,-187 211.17,-187 207.33,-187 203.5,-183.17 203.5,-179.33 203.5,-179.33 203.5,-171.67 203.5,-171.67 203.5,-167.83 207.33,-164 211.17,-164 211.17,-164 320.83,-164 320.83,-164 324.67,-164 328.5,-167.83 328.5,-171.67 328.5,-171.67 328.5,-179.33 328.5,-179.33 328.5,-183.17 324.67,-187 320.83,-187"/>
<text text-anchor="middle" x="266" y="-171.8" font-family="Arial" font-size="14.00" fill="#cfffac">src/styles/App.css</text>
</g>
<!-- src/App.js&#45;&gt;src/styles/App.css -->
<g id="edge7" class="edge">
<title>src/App.js&#45;&gt;src/styles/App.css</title>
<path fill="none" stroke="#757575" d="M103.03,-208.65C121.87,-204.68 145.15,-199.8 166,-195.5 175.13,-193.62 184.75,-191.66 194.24,-189.73"/>
<polygon fill="#757575" stroke="#757575" points="194.72,-193.2 203.82,-187.78 193.32,-186.34 194.72,-193.2"/>
</g>
<!-- src/components/Error.js -->
<g id="node11" class="node">
<title>src/components/Error.js</title>
<path fill="none" stroke="#cfffac" d="M569.33,-351C569.33,-351 425.67,-351 425.67,-351 421.83,-351 418,-347.17 418,-343.33 418,-343.33 418,-335.67 418,-335.67 418,-331.83 421.83,-328 425.67,-328 425.67,-328 569.33,-328 569.33,-328 573.17,-328 577,-331.83 577,-335.67 577,-335.67 577,-343.33 577,-343.33 577,-347.17 573.17,-351 569.33,-351"/>
<text text-anchor="middle" x="497.5" y="-335.8" font-family="Arial" font-size="14.00" fill="#cfffac">src/components/Error.js</text>
</g>
<!-- src/Routes.jsx&#45;&gt;src/components/Error.js -->
<g id="edge8" class="edge">
<title>src/Routes.jsx&#45;&gt;src/components/Error.js</title>
<path fill="none" stroke="#757575" d="M288.84,-269.37C315.04,-283.17 360.62,-305.81 402,-319.5 407.72,-321.39 413.7,-323.15 419.75,-324.77"/>
<polygon fill="#757575" stroke="#757575" points="418.65,-328.1 429.21,-327.17 420.37,-321.32 418.65,-328.1"/>
</g>
<!-- src/components/Loading.jsx -->
<g id="node12" class="node">
<title>src/components/Loading.jsx</title>
<path fill="none" stroke="#cfffac" d="M582.33,-269C582.33,-269 412.67,-269 412.67,-269 408.83,-269 405,-265.17 405,-261.33 405,-261.33 405,-253.67 405,-253.67 405,-249.83 408.83,-246 412.67,-246 412.67,-246 582.33,-246 582.33,-246 586.17,-246 590,-249.83 590,-253.67 590,-253.67 590,-261.33 590,-261.33 590,-265.17 586.17,-269 582.33,-269"/>
<text text-anchor="middle" x="497.5" y="-253.8" font-family="Arial" font-size="14.00" fill="#cfffac">src/components/Loading.jsx</text>
</g>
<!-- src/Routes.jsx&#45;&gt;src/components/Loading.jsx -->
<g id="edge9" class="edge">
<title>src/Routes.jsx&#45;&gt;src/components/Loading.jsx</title>
<path fill="none" stroke="#757575" d="M316.8,-257.5C339.29,-257.5 366.75,-257.5 393.37,-257.5"/>
<polygon fill="#757575" stroke="#757575" points="393.19,-261 403.19,-257.5 393.19,-254 393.19,-261"/>
</g>
<!-- src/components/Question.jsx -->
<g id="node13" class="node">
<title>src/components/Question.jsx</title>
<path fill="none" stroke="#c6c5fe" d="M585.33,-187C585.33,-187 409.67,-187 409.67,-187 405.83,-187 402,-183.17 402,-179.33 402,-179.33 402,-171.67 402,-171.67 402,-167.83 405.83,-164 409.67,-164 409.67,-164 585.33,-164 585.33,-164 589.17,-164 593,-167.83 593,-171.67 593,-171.67 593,-179.33 593,-179.33 593,-183.17 589.17,-187 585.33,-187"/>
<text text-anchor="middle" x="497.5" y="-171.8" font-family="Arial" font-size="14.00" fill="#c6c5fe">src/components/Question.jsx</text>
</g>
<!-- src/Routes.jsx&#45;&gt;src/components/Question.jsx -->
<g id="edge10" class="edge">
<title>src/Routes.jsx&#45;&gt;src/components/Question.jsx</title>
<path fill="none" stroke="#757575" d="M316.9,-253.95C333.38,-251.12 351.26,-246.15 366,-237.5 387.2,-225.06 380.85,-208.04 402,-195.5 404.17,-194.21 406.41,-193.01 408.7,-191.88"/>
<polygon fill="#757575" stroke="#757575" points="409.88,-195.19 417.68,-188.02 407.11,-188.76 409.88,-195.19"/>
</g>
<!-- src/components/Results.jsx -->
<g id="node14" class="node">
<title>src/components/Results.jsx</title>
<path fill="none" stroke="#c6c5fe" d="M580.83,-228C580.83,-228 414.17,-228 414.17,-228 410.33,-228 406.5,-224.17 406.5,-220.33 406.5,-220.33 406.5,-212.67 406.5,-212.67 406.5,-208.83 410.33,-205 414.17,-205 414.17,-205 580.83,-205 580.83,-205 584.67,-205 588.5,-208.83 588.5,-212.67 588.5,-212.67 588.5,-220.33 588.5,-220.33 588.5,-224.17 584.67,-228 580.83,-228"/>
<text text-anchor="middle" x="497.5" y="-212.8" font-family="Arial" font-size="14.00" fill="#c6c5fe">src/components/Results.jsx</text>
</g>
<!-- src/Routes.jsx&#45;&gt;src/components/Results.jsx -->
<g id="edge11" class="edge">
<title>src/Routes.jsx&#45;&gt;src/components/Results.jsx</title>
<path fill="none" stroke="#757575" d="M316.8,-248.6C346.41,-243.31 384.62,-236.49 418.19,-230.49"/>
<polygon fill="#757575" stroke="#757575" points="418.66,-233.96 427.89,-228.76 417.43,-227.07 418.66,-233.96"/>
</g>
<!-- src/hooks/useQuestion.js -->
<g id="node15" class="node">
<title>src/hooks/useQuestion.js</title>
<path fill="none" stroke="#cfffac" d="M573.83,-310C573.83,-310 421.17,-310 421.17,-310 417.33,-310 413.5,-306.17 413.5,-302.33 413.5,-302.33 413.5,-294.67 413.5,-294.67 413.5,-290.83 417.33,-287 421.17,-287 421.17,-287 573.83,-287 573.83,-287 577.67,-287 581.5,-290.83 581.5,-294.67 581.5,-294.67 581.5,-302.33 581.5,-302.33 581.5,-306.17 577.67,-310 573.83,-310"/>
<text text-anchor="middle" x="497.5" y="-294.8" font-family="Arial" font-size="14.00" fill="#cfffac">src/hooks/useQuestion.js</text>
</g>
<!-- src/Routes.jsx&#45;&gt;src/hooks/useQuestion.js -->
<g id="edge12" class="edge">
<title>src/Routes.jsx&#45;&gt;src/hooks/useQuestion.js</title>
<path fill="none" stroke="#757575" d="M316.8,-266.4C346.41,-271.69 384.62,-278.51 418.19,-284.51"/>
<polygon fill="#757575" stroke="#757575" points="417.43,-287.93 427.89,-286.24 418.66,-281.04 417.43,-287.93"/>
</g>
<!-- src/features/questionSlice.js -->
<g id="node17" class="node">
<title>src/features/questionSlice.js</title>
<path fill="none" stroke="#cfffac" d="M840.33,-146C840.33,-146 670.67,-146 670.67,-146 666.83,-146 663,-142.17 663,-138.33 663,-138.33 663,-130.67 663,-130.67 663,-126.83 666.83,-123 670.67,-123 670.67,-123 840.33,-123 840.33,-123 844.17,-123 848,-126.83 848,-130.67 848,-130.67 848,-138.33 848,-138.33 848,-142.17 844.17,-146 840.33,-146"/>
<text text-anchor="middle" x="755.5" y="-130.8" font-family="Arial" font-size="14.00" fill="#cfffac">src/features/questionSlice.js</text>
</g>
<!-- src/components/Question.jsx&#45;&gt;src/features/questionSlice.js -->
<g id="edge14" class="edge">
<title>src/components/Question.jsx&#45;&gt;src/features/questionSlice.js</title>
<path fill="none" stroke="#757575" d="M573.23,-163.53C603.07,-158.75 637.61,-153.22 668.48,-148.28"/>
<polygon fill="#757575" stroke="#757575" points="668.86,-151.76 678.18,-146.72 667.75,-144.85 668.86,-151.76"/>
</g>
<!-- src/styles/styles.module.css -->
<g id="node18" class="node">
<title>src/styles/styles.module.css</title>
<path fill="none" stroke="#cfffac" d="M839.83,-208C839.83,-208 671.17,-208 671.17,-208 667.33,-208 663.5,-204.17 663.5,-200.33 663.5,-200.33 663.5,-192.67 663.5,-192.67 663.5,-188.83 667.33,-185 671.17,-185 671.17,-185 839.83,-185 839.83,-185 843.67,-185 847.5,-188.83 847.5,-192.67 847.5,-192.67 847.5,-200.33 847.5,-200.33 847.5,-204.17 843.67,-208 839.83,-208"/>
<text text-anchor="middle" x="755.5" y="-192.8" font-family="Arial" font-size="14.00" fill="#cfffac">src/styles/styles.module.css</text>
</g>
<!-- src/components/Question.jsx&#45;&gt;src/styles/styles.module.css -->
<g id="edge15" class="edge">
<title>src/components/Question.jsx&#45;&gt;src/styles/styles.module.css</title>
<path fill="none" stroke="#757575" d="M593.46,-183.29C612.49,-184.85 632.57,-186.5 651.85,-188.08"/>
<polygon fill="#757575" stroke="#757575" points="651.33,-191.55 661.59,-188.88 651.91,-184.57 651.33,-191.55"/>
</g>
<!-- src/components/Results.jsx&#45;&gt;src/styles/styles.module.css -->
<g id="edge16" class="edge">
<title>src/components/Results.jsx&#45;&gt;src/styles/styles.module.css</title>
<path fill="none" stroke="#757575" d="M588.76,-209.45C609.26,-207.85 631.17,-206.13 652.14,-204.5"/>
<polygon fill="#757575" stroke="#757575" points="652.13,-208.01 661.82,-203.74 651.58,-201.03 652.13,-208.01"/>
</g>
<!-- src/components/Error.test.js -->
<g id="node16" class="node">
<title>src/components/Error.test.js</title>
<path fill="none" stroke="#c6c5fe" d="M350.83,-351C350.83,-351 181.17,-351 181.17,-351 177.33,-351 173.5,-347.17 173.5,-343.33 173.5,-343.33 173.5,-335.67 173.5,-335.67 173.5,-331.83 177.33,-328 181.17,-328 181.17,-328 350.83,-328 350.83,-328 354.67,-328 358.5,-331.83 358.5,-335.67 358.5,-335.67 358.5,-343.33 358.5,-343.33 358.5,-347.17 354.67,-351 350.83,-351"/>
<text text-anchor="middle" x="266" y="-335.8" font-family="Arial" font-size="14.00" fill="#c6c5fe">src/components/Error.test.js</text>
</g>
<!-- src/components/Error.test.js&#45;&gt;src/components/Error.js -->
<g id="edge13" class="edge">
<title>src/components/Error.test.js&#45;&gt;src/components/Error.js</title>
<path fill="none" stroke="#757575" d="M358.69,-339.5C374.37,-339.5 390.64,-339.5 406.27,-339.5"/>
<polygon fill="#757575" stroke="#757575" points="406.01,-343 416.01,-339.5 406.01,-336 406.01,-343"/>
</g>
<!-- src/components/Results.test.js -->
<g id="node19" class="node">
<title>src/components/Results.test.js</title>
<path fill="none" stroke="#c6c5fe" d="M358.33,-228C358.33,-228 173.67,-228 173.67,-228 169.83,-228 166,-224.17 166,-220.33 166,-220.33 166,-212.67 166,-212.67 166,-208.83 169.83,-205 173.67,-205 173.67,-205 358.33,-205 358.33,-205 362.17,-205 366,-208.83 366,-212.67 366,-212.67 366,-220.33 366,-220.33 366,-224.17 362.17,-228 358.33,-228"/>
<text text-anchor="middle" x="266" y="-212.8" font-family="Arial" font-size="14.00" fill="#c6c5fe">src/components/Results.test.js</text>
</g>
<!-- src/components/Results.test.js&#45;&gt;src/components/Results.jsx -->
<g id="edge17" class="edge">
<title>src/components/Results.test.js&#45;&gt;src/components/Results.jsx</title>
<path fill="none" stroke="#757575" d="M366.33,-216.5C375.71,-216.5 385.24,-216.5 394.65,-216.5"/>
<polygon fill="#757575" stroke="#757575" points="394.54,-220 404.54,-216.5 394.54,-213 394.54,-220"/>
</g>
<!-- src/components/Results.test.js&#45;&gt;src/features/questionSlice.js -->
<g id="edge18" class="edge">
<title>src/components/Results.test.js&#45;&gt;src/features/questionSlice.js</title>
<path fill="none" stroke="#757575" d="M351.73,-204.55C356.82,-202.04 361.64,-199.05 366,-195.5 396.87,-170.38 368.68,-135.26 402,-113.5 473.07,-67.08 508.29,-108.02 593,-113.5 617.11,-115.06 643.13,-117.92 667.08,-121.04"/>
<polygon fill="#757575" stroke="#757575" points="666.42,-124.48 676.79,-122.33 667.35,-117.54 666.42,-124.48"/>
</g>
<!-- src/store.js -->
<g id="node20" class="node">
<title>src/store.js</title>
<path fill="none" stroke="#c6c5fe" d="M530.83,-146C530.83,-146 464.17,-146 464.17,-146 460.33,-146 456.5,-142.17 456.5,-138.33 456.5,-138.33 456.5,-130.67 456.5,-130.67 456.5,-126.83 460.33,-123 464.17,-123 464.17,-123 530.83,-123 530.83,-123 534.67,-123 538.5,-126.83 538.5,-130.67 538.5,-130.67 538.5,-138.33 538.5,-138.33 538.5,-142.17 534.67,-146 530.83,-146"/>
<text text-anchor="middle" x="497.5" y="-130.8" font-family="Arial" font-size="14.00" fill="#c6c5fe">src/store.js</text>
</g>
<!-- src/store.js&#45;&gt;src/features/questionSlice.js -->
<g id="edge19" class="edge">
<title>src/store.js&#45;&gt;src/features/questionSlice.js</title>
<path fill="none" stroke="#757575" d="M538.78,-134.5C569.03,-134.5 611.86,-134.5 651.4,-134.5"/>
<polygon fill="#757575" stroke="#757575" points="651.21,-138 661.21,-134.5 651.21,-131 651.21,-138"/>
</g>
</g>
</svg>
